<?xml version="1.0" encoding="iso-8859-1"?>
<!-- Generator: Adobe Illustrator 19.0.0, SVG Export Plug-In . SVG Version: 6.00 Build 0)  -->
<svg version="1.1" id="Layer_1" xmlns="http://www.w3.org/2000/svg" xmlns:xlink="http://www.w3.org/1999/xlink" x="0px" y="0px"
	 viewBox="0 0 392.611 392.611" style="enable-background:new 0 0 392.611 392.611;" xml:space="preserve">
<path style="fill:#FFFFFF;" d="M346.027,32.711c0-6.012-4.848-10.925-10.925-10.925H57.574c-6.012,0-10.925,4.848-10.925,10.925
	v177.131h299.378V32.711z"/>
<path style="fill:#FFC10D;" d="M324.241,54.497c0-6.012-4.848-10.925-10.925-10.925H79.36c-6.012,0-10.925,4.848-10.925,10.925
	v155.345l0,0h255.677l0,0V54.497H324.241z"/>
<path style="fill:#56ACE0;" d="M359.926,231.628H32.815c-6.012,0-10.925,4.848-10.925,10.925c0,6.077,4.978,10.925,10.925,10.925
	h327.111c6.012,0,10.925-4.848,10.925-10.925C370.851,236.477,365.938,231.628,359.926,231.628z"/>
<g>
	<path style="fill:#194F82;" d="M290.819,87.984H101.922c-6.012,0-10.925-4.848-10.925-10.925c0-6.077,4.848-10.925,10.925-10.925
		h188.832c6.012,0,10.925,4.848,10.925,10.925C301.679,83.135,296.831,87.984,290.819,87.984z"/>
	<path style="fill:#194F82;" d="M290.819,137.632H101.922c-6.012,0-10.925-4.848-10.925-10.925c0-6.077,4.848-10.925,10.925-10.925
		h188.832c6.012,0,10.925,4.848,10.925,10.925C301.679,132.784,296.831,137.632,290.819,137.632z"/>
	<path style="fill:#194F82;" d="M193.073,187.216h-91.152c-6.012,0-10.925-4.848-10.925-10.925c0-6.012,4.848-10.925,10.925-10.925
		h91.087c6.012,0,10.925,4.848,10.925,10.925C203.934,182.368,199.085,187.216,193.073,187.216z"/>
	<path style="fill:#194F82;" d="M367.813,210.877V32.711C367.813,14.675,353.138,0,335.102,0H57.574
		C39.538,0,24.863,14.675,24.863,32.711v178.166c-14.222,3.556-24.824,16.356-24.824,31.677c0,18.036,14.675,32.711,32.711,32.711
		h95.418l-50.23,101.56c-2.715,5.43-0.453,11.895,4.978,14.61s11.895,0.453,14.61-4.913l15.321-30.836h166.982l15.386,30.901
		c2.715,5.43,9.18,7.564,14.61,4.848s7.564-9.18,4.848-14.61l-50.554-101.43h95.741c18.036,0,32.711-14.675,32.711-32.711
		C392.637,227.232,382.035,214.432,367.813,210.877z M46.714,32.711c0-6.012,4.848-10.925,10.925-10.925h277.463
		c6.012,0,10.925,4.848,10.925,10.925v177.131H46.714V32.711z M269.033,333.834H123.578l28.962-58.505h87.337L269.033,333.834z
		 M359.926,253.479H32.815c-6.012,0-10.925-4.848-10.925-10.925c0-6.012,4.848-10.925,10.925-10.925h327.111
		c6.012,0,10.925,4.848,10.925,10.925C370.851,248.566,365.938,253.479,359.926,253.479z"/>
</g>
<g>
</g>
<g>
</g>
<g>
</g>
<g>
</g>
<g>
</g>
<g>
</g>
<g>
</g>
<g>
</g>
<g>
</g>
<g>
</g>
<g>
</g>
<g>
</g>
<g>
</g>
<g>
</g>
<g>
</g>
</svg>
