<?xml version="1.0" encoding="iso-8859-1"?>
<!-- Generator: Adobe Illustrator 19.0.0, SVG Export Plug-In . SVG Version: 6.00 Build 0)  -->
<svg version="1.1" id="Layer_1" xmlns="http://www.w3.org/2000/svg" xmlns:xlink="http://www.w3.org/1999/xlink" x="0px" y="0px"
	 viewBox="0 0 392.575 392.575" style="enable-background:new 0 0 392.575 392.575;" xml:space="preserve">
<path style="fill:#FFFFFF;" d="M296.348,52.163h-138.02c-0.065,0-0.065,0-0.129,0h-0.517v59.604c0,6.012-4.848,10.925-10.925,10.925
	H83.338v205.64c0,6.465,5.883,11.766,13.059,11.766h202.085c6.012,0,10.925-4.848,10.925-10.925v-96.453c0-0.065,0-0.065,0-0.129
	V63.929C309.342,57.399,303.523,52.163,296.348,52.163z"/>
<path style="fill:#FFC10D;" d="M157.616,73.949H276.63c6.012,0,10.925,4.848,10.925,10.925v222.449
	c0,6.012-4.848,10.925-10.925,10.925H115.984c-6.012,0-10.925-4.848-10.925-10.925V122.628"/>
<g>
	<path style="fill:#194F82;" d="M260.081,117.521h-60.38c-6.012,0-10.925-4.848-10.925-10.925c0-6.012,4.848-10.925,10.925-10.925
		h60.38c6.012,0,10.925,4.848,10.925,10.925C271.006,112.672,266.093,117.521,260.081,117.521z"/>
	<path style="fill:#194F82;" d="M260.081,177.189H132.533c-6.012,0-10.925-4.848-10.925-10.925c0-6.012,4.848-10.925,10.925-10.925
		h127.547c6.012,0,10.925,4.848,10.925,10.925S266.093,177.189,260.081,177.189z"/>
	<path style="fill:#194F82;" d="M260.081,236.793H132.533c-6.012,0-10.925-4.848-10.925-10.925c0-6.012,4.848-10.925,10.925-10.925
		h127.547c6.012,0,10.925,4.848,10.925,10.925S266.093,236.793,260.081,236.793z"/>
	<path style="fill:#194F82;" d="M260.081,296.397H132.533c-6.012,0-10.925-4.848-10.925-10.925c0-6.012,4.848-10.925,10.925-10.925
		h127.547c6.012,0,10.925,4.848,10.925,10.925S266.093,296.397,260.081,296.397z"/>
</g>
<polygon style="fill:#FFFFFF;" points="135.766,66.579 99.693,100.842 135.766,100.842 "/>
<g>
	<path style="fill:#56ACE0;" d="M365.325,131.614l-34.133-22.303v89.859l37.43-51.459
		C372.307,141.569,371.144,136.333,365.325,131.614z"/>
	<path style="fill:#56ACE0;" d="M200.671,23.977c-5.883-3.879-14.545-2.327-18.489,3.038l-2.457,3.426h30.772L200.671,23.977z"/>
	<path style="fill:#56ACE0;" d="M192.008,368.284c5.883,3.879,14.545,2.327,18.489-3.103l2.392-3.297h-30.707L192.008,368.284z"/>
	<path style="fill:#56ACE0;" d="M27.289,260.648l34.263,22.303v-89.859l-37.495,51.523C20.372,250.369,21.342,255.67,27.289,260.648
		z"/>
</g>
<polygon style="fill:#FFFFFF;" points="99.693,100.842 135.766,100.842 135.766,66.579 "/>
<path style="fill:#194F82;" d="M377.22,113.383l-46.158-30.125V63.929c0-18.554-15.58-33.616-34.844-33.616h-45.964L212.566,5.747
	c-18.23-10.214-37.883-5.818-48.032,8.469L152.509,30.7c-2.651-1.228-16.679,4.848-20.428,9.374l-60.38,57.212
	c-6.659,6.4-10.343,14.933-10.343,23.984v34.78L6.279,231.88c-11.055,14.222-7.176,36.331,8.986,47.063l46.158,30.125v19.265
	c0,18.554,15.58,33.616,34.844,33.616h45.964l37.689,24.63c14.352,9.438,36.525,7.952,48.032-8.469l11.766-16.226h58.57
	c18.036,0,32.711-14.675,32.711-32.711v-93.026l55.014-75.701C397.325,144.737,393.77,125.472,377.22,113.383z M61.422,282.951
	L27.16,260.648c-5.947-4.848-6.853-10.214-3.232-15.968l37.495-51.523V282.951z M182.182,26.951
	c3.943-5.43,12.606-6.853,18.489-3.038l9.826,6.4h-30.772L182.182,26.951z M135.766,66.579v34.263H99.693L135.766,66.579z
	 M210.497,365.181c-3.943,5.43-12.606,6.982-18.489,3.103l-9.826-6.4h30.707L210.497,365.181z M309.342,232.721v96.388
	c0,6.012-4.848,10.925-10.925,10.925H96.267c-7.176,0-13.059-5.236-13.059-11.766v-205.64h63.418
	c6.012,0,10.925-4.848,10.925-10.925V52.098h0.517c0.065,0,0.065,0,0.129,0h138.02c7.176,0,13.059,5.236,13.059,11.766v168.663
	C309.342,232.656,309.342,232.721,309.342,232.721z M368.558,147.581l-37.43,51.459v-89.859l34.133,22.303
	C371.144,136.333,372.307,141.569,368.558,147.581z"/>
<g>
</g>
<g>
</g>
<g>
</g>
<g>
</g>
<g>
</g>
<g>
</g>
<g>
</g>
<g>
</g>
<g>
</g>
<g>
</g>
<g>
</g>
<g>
</g>
<g>
</g>
<g>
</g>
<g>
</g>
</svg>
