<?xml version="1.0" encoding="iso-8859-1"?>
<!-- Generator: Adobe Illustrator 19.0.0, SVG Export Plug-In . SVG Version: 6.00 Build 0)  -->
<svg version="1.1" id="Layer_1" xmlns="http://www.w3.org/2000/svg" xmlns:xlink="http://www.w3.org/1999/xlink" x="0px" y="0px"
	 viewBox="0 0 392.598 392.598" style="enable-background:new 0 0 392.598 392.598;" xml:space="preserve">
<path style="fill:#194F82;" d="M245.689,307.006c4.267-4.267,4.267-11.119,0-15.451l-38.465-38.465v-44.994
	c0-6.012-4.848-10.925-10.925-10.925c-6.077,0-10.925,4.848-10.925,10.925v44.994l-38.465,38.465
	c-4.267,4.267-4.267,11.119,0,15.451c4.267,4.267,11.119,4.267,15.451,0l33.939-33.939l33.939,33.939
	C235.604,311.337,240.84,311.079,245.689,307.006z"/>
<path style="fill:#FFC10D;" d="M196.299,56.954c9.632,0,17.519-7.887,17.519-17.519s-7.887-17.648-17.519-17.648
	c-9.632,0-17.648,7.887-17.648,17.648C178.651,49.067,186.667,56.954,196.299,56.954z"/>
<path style="fill:#56ACE0;" d="M254.933,140.089c0-2.909-1.228-5.624-3.297-7.37c-15.515-12.735-35.297-19.782-55.467-19.782
	c-20.234,0-39.952,7.046-55.467,19.782c-2.069,1.681-3.297,4.461-3.297,7.37v14.352h117.657v-14.352H254.933z"/>
<path style="fill:#FFFFFF;" d="M80.84,273.261c9.632,0,17.519-7.887,17.519-17.519c0-9.632-7.887-17.519-17.519-17.519
	s-17.519,7.887-17.519,17.519C63.321,265.374,71.208,273.261,80.84,273.261z"/>
<g>
	<path style="fill:#FFC10D;" d="M139.475,356.396c0-2.909-1.228-5.624-3.297-7.37c-15.58-12.8-35.297-19.846-55.467-19.846
		c-20.234,0-39.952,7.046-55.467,19.782c-2.069,1.681-3.297,4.461-3.297,7.37v14.352h117.657v-14.287H139.475z"/>
	<path style="fill:#FFC10D;" d="M312.145,273.261c9.632,0,17.519-7.887,17.519-17.519c0-9.632-7.887-17.519-17.519-17.519
		s-17.584,7.822-17.584,17.455C294.497,265.374,302.384,273.261,312.145,273.261z"/>
</g>
<path style="fill:#56ACE0;" d="M370.78,356.396c0-2.844-1.228-5.624-3.297-7.37c-15.515-12.735-35.297-19.782-55.467-19.782
	s-39.952,7.046-55.467,19.782c-2.069,1.681-3.297,4.461-3.297,7.37v14.352h117.657v-14.352H370.78z"/>
<g>
	<path style="fill:#194F82;" d="M196.299,78.739c21.721,0,39.434-17.713,39.434-39.434S218.02,0,196.299,0
		s-39.434,17.713-39.434,39.434S174.578,78.739,196.299,78.739z M196.299,21.786c9.632,0,17.519,7.887,17.519,17.648
		c0,9.632-7.887,17.519-17.519,17.519c-9.632,0-17.648-7.887-17.648-17.519C178.651,29.673,186.667,21.786,196.299,21.786z"/>
	<path style="fill:#194F82;" d="M126.352,176.226h139.507c6.012,0,10.925-4.848,10.925-10.925v-25.277
		c0-9.503-4.073-18.295-11.378-24.242c-19.459-15.903-44.024-24.76-69.301-24.76s-49.842,8.792-69.301,24.76
		c-7.176,5.883-11.378,14.739-11.378,24.242v25.277C115.491,171.378,120.339,176.226,126.352,176.226z M137.277,140.089
		c0-2.909,1.228-5.624,3.297-7.37c15.515-12.735,35.297-19.782,55.467-19.782c20.234,0,39.952,7.046,55.467,19.782
		c2.069,1.681,3.297,4.461,3.297,7.37v14.352H137.277V140.089z"/>
	<path style="fill:#194F82;" d="M80.84,295.046c21.721,0,39.434-17.713,39.434-39.434s-17.713-39.434-39.434-39.434
		s-39.434,17.713-39.434,39.434C41.535,277.333,59.119,295.046,80.84,295.046z M80.84,238.093c9.632,0,17.519,7.887,17.519,17.519
		c0,9.632-7.887,17.519-17.519,17.519s-17.519-7.887-17.519-17.519C63.321,245.98,71.208,238.093,80.84,238.093z"/>
	<path style="fill:#194F82;" d="M150.012,332.089c-19.459-15.903-44.024-24.76-69.301-24.76s-49.842,8.857-69.301,24.76
		c-7.305,5.883-11.378,14.804-11.378,24.307v25.277c0,6.012,4.848,10.925,10.925,10.925H150.4c6.012,0,10.925-4.848,10.925-10.925
		v-25.277C161.325,346.893,157.188,337.972,150.012,332.089z M21.818,356.396c0-2.909,1.228-5.624,3.297-7.37
		c15.515-12.735,35.297-19.782,55.467-19.782c20.234,0,39.952,7.046,55.467,19.782c2.069,1.681,3.297,4.461,3.297,7.37v14.352
		H21.818V356.396z"/>
	<path style="fill:#194F82;" d="M312.145,295.046c21.721,0,39.434-17.713,39.434-39.434s-17.713-39.434-39.434-39.434
		s-39.434,17.713-39.434,39.434S290.424,295.046,312.145,295.046z M312.145,238.093c9.632,0,17.519,7.887,17.519,17.519
		c0,9.632-7.887,17.519-17.519,17.519s-17.584-7.887-17.584-17.519C294.497,245.98,302.384,238.093,312.145,238.093z"/>
	<path style="fill:#194F82;" d="M381.188,332.089c-19.459-15.903-44.024-24.76-69.301-24.76s-49.842,8.792-69.301,24.76
		c-7.176,5.883-11.378,14.739-11.378,24.242v25.277c0,6.012,4.848,10.925,10.925,10.925H381.64c6.012,0,10.925-4.848,10.925-10.925
		v-25.277C392.566,346.893,388.493,337.972,381.188,332.089z M253.123,356.396c0-2.844,1.228-5.624,3.297-7.37
		c15.515-12.735,35.297-19.782,55.467-19.782c20.17,0,39.952,7.046,55.467,19.782c2.069,1.681,3.297,4.461,3.297,7.37v14.352
		H253.123V356.396z"/>
</g>
<g>
</g>
<g>
</g>
<g>
</g>
<g>
</g>
<g>
</g>
<g>
</g>
<g>
</g>
<g>
</g>
<g>
</g>
<g>
</g>
<g>
</g>
<g>
</g>
<g>
</g>
<g>
</g>
<g>
</g>
</svg>
