<?xml version="1.0" encoding="iso-8859-1"?>
<!-- Generator: Adobe Illustrator 19.0.0, SVG Export Plug-In . SVG Version: 6.00 Build 0)  -->
<svg version="1.1" id="Layer_1" xmlns="http://www.w3.org/2000/svg" xmlns:xlink="http://www.w3.org/1999/xlink" x="0px" y="0px"
	 viewBox="0 0 392.663 392.663" style="enable-background:new 0 0 392.663 392.663;" xml:space="preserve">
<path style="fill:#56ACE0;" d="M356.008,21.786H36.655c-8.21,0-14.869,6.659-14.869,14.869c0,8.21,6.659,14.804,14.869,14.804
	h319.224c8.21,0,14.869-6.659,14.869-14.804S364.154,21.786,356.008,21.786z"/>
<path style="fill:#FFFFFF;" d="M51.135,73.309v191.547c0,5.301,4.331,9.632,9.632,9.632H331.83c5.301,0,9.632-4.331,9.632-9.632
	V73.309H51.135z"/>
<rect x="72.921" y="73.309" style="fill:#FFC10D;" width="246.82" height="179.459"/>
<path style="fill:#56ACE0;" d="M196.331,351.354c-5.301,0-9.632,4.331-9.632,9.632s4.331,9.632,9.632,9.632s9.632-4.331,9.632-9.632
	C205.964,355.685,201.632,351.354,196.331,351.354z"/>
<g>
	<path style="fill:#194F82;" d="M92.38,247.402h207.838c5.43,0,9.891-4.396,9.891-9.891s-4.396-9.891-9.891-9.891H116.17
		l50.747-50.747l27.152,27.152c3.62,3.943,10.343,3.879,13.899,0l75.83-75.83c3.879-3.879,3.879-10.15,0-13.899
		c-3.879-3.879-10.15-3.879-13.899,0l-68.848,68.848l-27.152-27.152c-3.491-3.685-9.891-3.943-13.899,0l-57.729,57.729v-103.37
		c0-5.43-4.396-9.891-9.891-9.891c-5.43,0-9.891,4.396-9.891,9.891v127.16C82.489,242.941,86.885,247.402,92.38,247.402z"/>
	<path style="fill:#194F82;" d="M356.008,0H36.655C16.485,0,0,16.485,0,36.655c0,17.713,12.606,32.453,29.22,35.943v192.323
		c0,17.39,14.158,31.547,31.547,31.547h124.638v35.103c-11.96,4.461-20.622,15.968-20.622,29.543
		c0,17.39,14.158,31.547,31.547,31.547s31.547-14.158,31.547-31.547c0-13.511-8.598-25.018-20.622-29.543v-35.168h124.638
		c17.39,0,31.547-14.158,31.547-31.547V72.533c16.679-3.426,29.22-18.23,29.22-35.943C392.598,16.485,376.113,0,356.008,0z
		 M196.331,370.747c-5.301,0-9.632-4.331-9.632-9.632c0-5.301,4.331-9.632,9.632-9.632s9.632,4.331,9.632,9.632
		C205.964,366.416,201.632,370.747,196.331,370.747z M341.527,264.857c0,5.301-4.331,9.632-9.632,9.632H60.768
		c-5.301,0-9.632-4.331-9.632-9.632V73.309h290.457v191.547H341.527L341.527,264.857z M356.008,51.459H36.655
		c-8.21,0-14.869-6.659-14.869-14.804s6.659-14.804,14.869-14.804h319.224c8.21,0,14.869,6.659,14.869,14.804
		S364.154,51.459,356.008,51.459z"/>
</g>
<g>
</g>
<g>
</g>
<g>
</g>
<g>
</g>
<g>
</g>
<g>
</g>
<g>
</g>
<g>
</g>
<g>
</g>
<g>
</g>
<g>
</g>
<g>
</g>
<g>
</g>
<g>
</g>
<g>
</g>
</svg>
